<?xml version="1.0" encoding="UTF-8" standalone="no"?>
<svg width="400px" height="400px" viewBox="0 0 400 400" version="1.1" xmlns="http://www.w3.org/2000/svg">
    <g id="Page-1" stroke="none" stroke-width="1" fill="none" fill-rule="evenodd">
        <g id="Group" transform="translate(18.000000, 15.000000)">
            <path d="M8.36440997,78.2601521 C3.88084837,80.3256131 3.87621225,83.6722512 8.36440997,85.7398479 L174.881794,162.450103 C179.365355,164.515564 186.630009,164.5177 191.118206,162.450103 L357.63559,85.7398479 C362.119152,83.6743869 362.123788,80.3277488 357.63559,78.2601521 L191.118206,1.54989673 C186.634645,-0.515564233 179.369991,-0.517699976 174.881794,1.54989673 L8.36440997,78.2601521 Z" id="Top" fill="#B682B9"></path>
            <path d="M0,99.5291285 L0,287.887805 C0,292.407456 3.18408926,297.456661 7.11523584,299.166988 L170.884764,370.418326 C174.8144,372.127995 178,369.941319 178,365.530461 L178,181.776414 C178,177.367251 174.815911,172.318088 170.884764,170.497231 L7.11523584,94.6412637 C3.1855996,92.821106 0,95.0077405 0,99.5291285 Z" id="Left" fill="#A8CA41"></path>
            <path d="M187,99.5291285 L187,287.887805 C187,292.407456 190.184089,297.456661 194.115236,299.166988 L357.884764,370.418326 C361.8144,372.127995 365,369.941319 365,365.530461 L365,181.776414 C365,177.367251 361.815911,172.318088 357.884764,170.497231 L194.115236,94.6412637 C190.1856,92.821106 187,95.0077405 187,99.5291285 Z" id="Right" fill="#4B6FA5" transform="translate(276.000000, 232.500000) scale(-1, 1) translate(-276.000000, -232.500000) "></path>
            <path d="M173.881794,1.54989673 C178.369991,-0.517699976 185.634645,-0.515564233 190.118206,1.54989673 L356.63559,78.2601521 C361.123788,80.3277488 361.119152,83.6743869 356.63559,85.7398479 L190.118206,162.450103 C185.630009,164.5177 178.365355,164.515564 173.881794,162.450103 L7.36440997,85.7398479 C2.87621225,83.6722512 2.88084837,80.3256131 7.36440997,78.2601521 L173.881794,1.54989673 Z M58.9960788,82 L182,138.664728 L305.003921,82 L182,25.3352723 L58.9960788,82 Z" id="Top-copy" fill-opacity="0.253245634" fill="#000000"></path>
            <path d="M365,287.887805 C365,292.407456 361.815911,297.456661 357.884764,299.166988 L194.115236,370.418326 C190.1856,372.127995 187,369.941319 187,365.530461 L187,181.776414 C187,177.367251 190.184089,172.318088 194.115236,170.497231 L357.884764,94.6412637 C361.8144,92.821106 365,95.0077405 365,99.5291285 L365,287.887805 Z M212,335.373583 L340,279.684522 L340,130.47683 L212,189.764806 L212,335.373583 Z" id="Right-copy" fill-opacity="0.253245634" fill="#000000"></path>
            <path d="M7.11523584,94.6412637 L170.884764,170.497231 C174.815911,172.318088 178,177.367251 178,181.776414 L178,365.530461 C178,369.941319 174.8144,372.127995 170.884764,370.418326 L7.11523584,299.166988 C3.18408926,297.456661 0,292.407456 0,287.887805 L0,99.5291285 C0,95.0077405 3.1855996,92.821106 7.11523584,94.6412637 Z M25,130.47683 L25,279.684522 L153,335.373583 L153,189.764806 L25,130.47683 Z" id="Left-copy" fill-opacity="0.253245634" fill="#000000"></path>
        </g>
    </g>
</svg>